<svg width="137" height="41" viewBox="0 0 137 41" fill="none" xmlns="http://www.w3.org/2000/svg"><path d="M7.514 29.699L4.12 31.712c-.46.303-.25.823 0 .928l13.183 7.387a2.583 2.583 0 002.516 0l13.358-7.485c.405-.24.338-.727 0-.891l-3.59-1.94c-.302-.2-.978-.133-1.217.03l-8.55 4.791a2.583 2.583 0 01-2.517 0l-8.627-4.833c-.321-.198-.83-.187-1.162 0z" fill="#213962"/><path d="M17.304.681a2.583 2.583 0 012.516 0L30.436 6.63c.424.215.463.79 0 1.05L28.02 9.028a2.999 2.999 0 01-2.927-.004L19.82 6.07a2.583 2.583 0 00-2.516 0l-5.279 2.958a3 3 0 01-2.928.003c-.81-.452-1.792-1-2.5-1.393-.393-.169-.475-.67 0-.958L17.304.681z" fill="#213962"/><path d="M35.176 9.634a2.43 2.43 0 011.259 2.116v17.208c0 .852-.534 1.01-1.102.713L31.4 27.55V15.98L19.82 22.47a2.583 2.583 0 01-2.517 0L5.722 15.98v11.568l-3.572 2.12c-.426.272-1.462.357-1.462-.71V11.75c0-.873.48-1.68 1.259-2.116 1.253-.656 2.547 0 2.547 0l14.068 7.9 14.045-7.9s1.247-.752 2.57 0z" fill="#00D2A7"/><path fill-rule="evenodd" clip-rule="evenodd" d="M85.807 8.284a1.711 1.711 0 100 3.422 1.711 1.711 0 000-3.422zm4.373 0a.169.169 0 00-.169.168v16.8c0 .093.076.169.169.169h2.598a.169.169 0 00.169-.169v-16.8a.169.169 0 00-.169-.168H90.18zm5.756 0a.169.169 0 00-.169.168v16.8c0 .093.076.169.169.169h2.598a.169.169 0 00.169-.169V16.29h2.628a.169.169 0 00.169-.169v-2.486a.17.17 0 00-.169-.169h-2.628V8.452a.169.169 0 00-.169-.168h-2.598zm-40.621 4.668a5.185 5.185 0 00-5.186 5.186v7.114c0 .093.076.169.169.169h2.598a.169.169 0 00.169-.169v-7.114a2.25 2.25 0 014.5 0v7.114c0 .093.075.169.168.169h2.599a.169.169 0 00.168-.169v-7.114a2.25 2.25 0 014.5 0v7.114c0 .093.076.169.169.169h2.598a.169.169 0 00.169-.169v-7.114a5.185 5.185 0 00-8.904-3.615 5.17 5.17 0 00-3.717-1.57zm20.322 0a6.293 6.293 0 00-6.294 6.294v.262a6.293 6.293 0 006.294 6.293c1.248 0 2.395-.438 3.357-1.127v.578c0 .093.076.169.169.169h2.598a.169.169 0 00.169-.169v-6.006a6.293 6.293 0 00-6.293-6.293zm39.409 0a6.293 6.293 0 00-6.293 6.294v.262a6.293 6.293 0 006.293 6.293c1.224 0 2.432-.546 3.357-1.244v.695c0 .093.076.169.169.169h2.598a.168.168 0 00.169-.169v-6.006a6.293 6.293 0 00-6.293-6.293zm14.764 0a6.293 6.293 0 00-6.293 6.294v10.961c0 .093.075.169.168.169h2.599a.168.168 0 00.168-.169v-5.376a6.293 6.293 0 009.651-5.324v-.261a6.293 6.293 0 00-6.293-6.293zm-21.949.416a5.592 5.592 0 00-5.592 5.592v6.292c0 .093.075.169.169.169h2.598a.169.169 0 00.169-.169V18.96a2.656 2.656 0 012.656-2.656.166.166 0 00.119-.05.168.168 0 00.05-.12v-2.597a.169.169 0 00-.169-.17zm-23.325.097a.169.169 0 00-.168.169v11.618c0 .093.075.169.168.169h2.599a.169.169 0 00.168-.169V13.634a.169.169 0 00-.168-.169h-2.599zm-12.257 5.78a3.357 3.357 0 016.715 0v.263a3.357 3.357 0 01-6.715 0v-.262zm39.41 0a3.357 3.357 0 116.714 0v.263a3.357 3.357 0 11-6.714 0v-.262zm14.763 0a3.358 3.358 0 016.715 0v.263a3.357 3.357 0 11-6.715 0v-.262z" fill="#213962"/><g opacity=".5" fill="#202C45"><path d="M52.828 36.784c1.17 0 2.156-.882 2.156-2.357 0-1.476-.987-2.357-2.156-2.357-.728 0-1.217.316-1.494.795h-.02v-2.932h-.938v6.707h.939v-.651h.019c.277.479.766.795 1.494.795zm-.2-.92c-.825 0-1.361-.594-1.361-1.437 0-.843.536-1.437 1.36-1.437.824 0 1.36.594 1.36 1.437 0 .843-.536 1.437-1.36 1.437z"/><path d="M59.077 32.214L57.9 35.117l-1.217-2.903H55.56l1.858 4.024-1.063 2.319h.996l2.76-6.343h-1.035z"/><path d="M66.487 32.08h-.067c-.747 0-1.255.44-1.466 1.101h-.019v-.967h-.939v4.426h.94v-1.964c0-1.054.488-1.495 1.408-1.495h.143V32.08z"/><path d="M69.267 36.784c.728 0 1.217-.316 1.495-.795h.019v.651h.939v-4.426h-.94v.651h-.019c-.277-.479-.766-.795-1.494-.795-1.17 0-2.156.881-2.156 2.357 0 1.475.987 2.357 2.156 2.357zm.201-.92c-.824 0-1.36-.594-1.36-1.437 0-.843.536-1.437 1.36-1.437.824 0 1.36.594 1.36 1.437 0 .843-.536 1.437-1.36 1.437z"/><path d="M74.204 30.029h-1.15v1.15h1.15v-1.15zM73.16 36.64h.939v-4.426h-.94v4.426z"/><path d="M76.518 29.933h-.939v6.707h.94v-6.707z"/><path d="M79.321 36.784c1.035 0 1.725-.44 1.725-1.341 0-.595-.307-.978-.882-1.246l-.823-.393c-.384-.182-.508-.316-.508-.527 0-.201.134-.335.546-.335.431 0 .843.143 1.178.287l.384-.814a3.885 3.885 0 00-1.534-.345c-.967 0-1.57.44-1.57 1.255 0 .508.258.958.929 1.274l.804.393c.374.182.47.316.47.498 0 .278-.24.412-.69.412-.527 0-.996-.182-1.408-.421l-.422.833c.508.297 1.169.47 1.801.47z"/><path d="M87.306 32.214l-.891 3.19-1.026-3.19h-.91l-1.025 3.19-.891-3.19h-1.035l1.485 4.426h.863l1.063-3.171 1.054 3.171h.862l1.486-4.426h-1.035z"/><path d="M91.069 36.784c.728 0 1.216-.316 1.494-.795h.02v.651h.938v-4.426h-.939v.651h-.019c-.278-.479-.766-.795-1.495-.795-1.168 0-2.155.881-2.155 2.357 0 1.475.987 2.357 2.156 2.357zm.2-.92c-.823 0-1.36-.594-1.36-1.437 0-.843.537-1.437 1.36-1.437.825 0 1.361.594 1.361 1.437 0 .843-.536 1.437-1.36 1.437z"/><path d="M97.405 32.08h-.067c-.748 0-1.256.44-1.466 1.101h-.02v-.967h-.939v4.426h.94v-1.964c0-1.054.488-1.495 1.408-1.495h.144V32.08z"/><path d="M100.289 32.07c-1.418 0-2.26 1.025-2.26 2.366 0 1.4.9 2.348 2.308 2.348 1.093 0 1.677-.604 2.003-1.054l-.661-.623c-.221.297-.633.776-1.361.776-.757 0-1.303-.517-1.341-1.303h3.43v-.153c0-1.428-.767-2.357-2.118-2.357zm-.057.862c.671 0 1.121.355 1.159.968h-2.366c.115-.642.575-.968 1.207-.968z"/></g></svg>