<svg width="696" height="529" viewBox="0 0 696 529" fill="none" xmlns="http://www.w3.org/2000/svg"><g clip-path="url(#clip0)"><path d="M369.526 233.974l-15.76-12.314a1 1 0 00-1.404.173l-8.619 11.032a1 1 0 00.172 1.403l15.761 12.314a.999.999 0 001.403-.173l8.62-11.032a1 1 0 00-.173-1.403z" fill="#FFE54C"/><path fill-rule="evenodd" clip-rule="evenodd" d="M353.931 222.029l3.212 8.167a.732.732 0 01-.413.948l-.018.006a.77.77 0 01-.979-.441l-3.212-8.167a.731.731 0 01.413-.948l.018-.007a.769.769 0 01.979.442z" fill="#4A4A4A"/><path fill-rule="evenodd" clip-rule="evenodd" d="M365.208 230.715l-8.56-.741a.764.764 0 00-.826.681.737.737 0 00.669.81l8.56.741a.764.764 0 00.826-.681.737.737 0 00-.655-.809l-.014-.001z" fill="#4A4A4A"/><path d="M367.957 229.892l-14.579-11.39a1 1 0 00-1.403.172l-7.696 9.85a1 1 0 00.172 1.404l14.578 11.39a1 1 0 001.404-.172l7.696-9.851a1 1 0 00-.172-1.403z" stroke="#202C45" stroke-width="1.5"/><path clip-rule="evenodd" d="M339.478 212.126c1.273 2.859 3.245 5.063 5.917 6.61.709-3.167.774-6.298.197-9.392-.865-4.641-3.196-7.7-5.214-6.802-2.019.899-2.81 5.296-.9 9.584z" stroke="#202C45"/><path clip-rule="evenodd" d="M335.912 223.817c2.621.229 5.057-.467 7.308-2.089-2.012-2.118-4.269-3.654-6.768-4.607-3.749-1.429-6.96-.821-7.153 1.379-.192 2.201 2.683 4.973 6.613 5.317z" stroke="#202C45"/><path d="M45 255H8v75h37v-75z" fill="#FFE54C"/><path d="M33.5 249.5h-30a2 2 0 00-2 2v68a2 2 0 002 2h30a2 2 0 002-2v-68a2 2 0 00-2-2z" stroke="#202C45" stroke-width="3"/><path d="M7.5 262.5h21" stroke="#4A4A4A" stroke-width="3" stroke-linecap="square"/><path d="M7.5 265.5h21" stroke="#fff" stroke-width="3" stroke-linecap="square"/><path d="M7.5 272.5h21" stroke="#4A4A4A" stroke-width="3" stroke-linecap="square"/><path d="M7.5 275.5h21" stroke="#fff" stroke-width="3" stroke-linecap="square"/><path d="M7.5 282.5h21" stroke="#4A4A4A" stroke-width="3" stroke-linecap="square"/><path d="M7.5 285.5h21" stroke="#fff" stroke-width="3" stroke-linecap="square"/><path d="M29 294h-5v5h5v-5z" fill="#202C45"/><path opacity=".6" d="M97 255H60v75h37v-75z" fill="#00E9B9"/><path d="M85.5 249.5h-30a2 2 0 00-2 2v68a2 2 0 002 2h30a2 2 0 002-2v-68a2 2 0 00-2-2z" stroke="#202C45" stroke-width="3"/><path d="M59.5 262.5h21" stroke="#4A4A4A" stroke-width="3" stroke-linecap="square"/><path d="M59.5 265.5h21" stroke="#fff" stroke-width="3" stroke-linecap="square"/><path d="M59.5 272.5h21" stroke="#4A4A4A" stroke-width="3" stroke-linecap="square"/><path d="M59.5 275.5h21" stroke="#fff" stroke-width="3" stroke-linecap="square"/><path d="M59.5 282.5h21" stroke="#4A4A4A" stroke-width="3" stroke-linecap="square"/><path d="M59.5 285.5h21" stroke="#fff" stroke-width="3" stroke-linecap="square"/><path d="M81 294h-5v5h5v-5z" fill="#202C45"/><path d="M151 255h-37v75h37v-75z" fill="#DCBAFF"/><path d="M139.5 249.5h-30a2 2 0 00-2 2v68a2 2 0 002 2h30a2 2 0 002-2v-68a2 2 0 00-2-2z" stroke="#202C45" stroke-width="3"/><path d="M113.5 262.5h21" stroke="#4A4A4A" stroke-width="3" stroke-linecap="square"/><path d="M113.5 265.5h21" stroke="#fff" stroke-width="3" stroke-linecap="square"/><path d="M113.5 272.5h21" stroke="#4A4A4A" stroke-width="3" stroke-linecap="square"/><path d="M113.5 275.5h21" stroke="#fff" stroke-width="3" stroke-linecap="square"/><path d="M113.5 282.5h21" stroke="#4A4A4A" stroke-width="3" stroke-linecap="square"/><path d="M113.5 285.5h21" stroke="#fff" stroke-width="3" stroke-linecap="square"/><path d="M135 294h-5v5h5v-5z" fill="#202C45"/><path d="M51.34 360.098c-.681 0-1.297-.117-1.848-.35a3.024 3.024 0 01-1.288-1.008c-.317-.439-.48-.957-.49-1.554h2.1c.028.401.168.719.42.952.261.233.616.35 1.064.35.457 0 .817-.107 1.078-.322a1.09 1.09 0 00.392-.868.996.996 0 00-.266-.714 1.78 1.78 0 00-.672-.434 9.26 9.26 0 00-1.092-.364 13.187 13.187 0 01-1.554-.546 2.883 2.883 0 01-1.022-.826c-.28-.373-.42-.868-.42-1.484 0-.579.145-1.083.434-1.512.29-.429.695-.756 1.218-.98.523-.233 1.12-.35 1.792-.35 1.008 0 1.825.247 2.45.742.635.485.985 1.167 1.05 2.044H52.53a1.091 1.091 0 00-.434-.826c-.261-.224-.611-.336-1.05-.336-.383 0-.69.098-.924.294-.224.196-.336.481-.336.854a.92.92 0 00.252.658c.177.168.392.308.644.42.261.103.625.224 1.092.364.635.187 1.153.373 1.554.56.401.187.747.467 1.036.84.29.373.434.863.434 1.47 0 .523-.135 1.008-.406 1.456-.27.448-.667.807-1.19 1.078-.523.261-1.143.392-1.862.392zm7.44-6.244v3.752c0 .261.06.453.181.574.13.112.346.168.644.168h.91V360h-1.232c-1.652 0-2.478-.803-2.478-2.408v-3.738h-.924v-1.61h.924v-1.918h1.974v1.918h1.736v1.61H58.78zm2.641 2.24c0-.784.154-1.479.462-2.086.317-.607.742-1.073 1.274-1.4a3.425 3.425 0 011.806-.49c.579 0 1.083.117 1.512.35.439.233.789.527 1.05.882v-1.106h1.974V360h-1.974v-1.134c-.252.364-.602.667-1.05.91-.439.233-.947.35-1.526.35-.653 0-1.25-.168-1.792-.504-.532-.336-.957-.807-1.274-1.414-.308-.616-.462-1.321-.462-2.114zm6.104.028c0-.476-.093-.882-.28-1.218a1.916 1.916 0 00-.756-.784 1.979 1.979 0 00-1.022-.28c-.364 0-.7.089-1.008.266a2.04 2.04 0 00-.756.784c-.187.336-.28.737-.28 1.204 0 .467.093.877.28 1.232.196.345.448.611.756.798.317.187.653.28 1.008.28.364 0 .705-.089 1.022-.266a2.04 2.04 0 00.756-.784c.187-.345.28-.756.28-1.232zm6.926-4.004c.579 0 1.088.117 1.526.35.439.224.784.518 1.036.882v-1.106h1.974v7.812c0 .719-.144 1.358-.434 1.918a3.174 3.174 0 01-1.302 1.344c-.578.336-1.278.504-2.1.504-1.101 0-2.006-.257-2.716-.77-.7-.513-1.096-1.213-1.19-2.1h1.946c.103.355.322.635.658.84.346.215.76.322 1.246.322.57 0 1.032-.173 1.386-.518.355-.336.532-.849.532-1.54v-1.204c-.252.364-.602.667-1.05.91-.438.243-.942.364-1.512.364-.653 0-1.25-.168-1.792-.504a3.567 3.567 0 01-1.288-1.414c-.308-.616-.462-1.321-.462-2.114 0-.784.154-1.479.462-2.086.318-.607.742-1.073 1.274-1.4a3.425 3.425 0 011.806-.49zm2.562 4.004c0-.476-.093-.882-.28-1.218a1.916 1.916 0 00-.756-.784 1.979 1.979 0 00-1.022-.28c-.364 0-.7.089-1.008.266a2.04 2.04 0 00-.756.784c-.186.336-.28.737-.28 1.204 0 .467.094.877.28 1.232.196.345.448.611.756.798.318.187.654.28 1.008.28.364 0 .705-.089 1.022-.266a2.04 2.04 0 00.756-.784c.187-.345.28-.756.28-1.232zm4.882-4.802c-.345 0-.634-.107-.867-.322a1.122 1.122 0 01-.337-.826c0-.327.112-.597.337-.812.233-.224.522-.336.867-.336.346 0 .63.112.855.336.233.215.35.485.35.812a1.1 1.1 0 01-.35.826c-.225.215-.51.322-.855.322zm.967.924V360h-1.96v-7.756h1.96zm6.234-.112c.924 0 1.67.294 2.24.882.57.579.854 1.391.854 2.436V360h-1.96v-4.284c0-.616-.154-1.087-.462-1.414-.308-.336-.728-.504-1.26-.504-.541 0-.97.168-1.288.504-.308.327-.462.798-.462 1.414V360h-1.96v-7.756h1.96v.966c.261-.336.593-.597.994-.784a3.08 3.08 0 011.344-.294zm7.996-.014c.579 0 1.087.117 1.526.35.439.224.784.518 1.036.882v-1.106h1.974v7.812c0 .719-.145 1.358-.434 1.918a3.169 3.169 0 01-1.302 1.344c-.579.336-1.279.504-2.1.504-1.101 0-2.007-.257-2.716-.77-.7-.513-1.097-1.213-1.19-2.1h1.946c.103.355.322.635.658.84.345.215.76.322 1.246.322.57 0 1.031-.173 1.386-.518.355-.336.532-.849.532-1.54v-1.204c-.252.364-.602.667-1.05.91-.439.243-.943.364-1.512.364-.653 0-1.25-.168-1.792-.504a3.567 3.567 0 01-1.288-1.414c-.308-.616-.462-1.321-.462-2.114 0-.784.154-1.479.462-2.086.317-.607.742-1.073 1.274-1.4a3.425 3.425 0 011.806-.49zm2.562 4.004c0-.476-.093-.882-.28-1.218a1.916 1.916 0 00-.756-.784 1.979 1.979 0 00-1.022-.28c-.364 0-.7.089-1.008.266a2.04 2.04 0 00-.756.784c-.187.336-.28.737-.28 1.204 0 .467.093.877.28 1.232.196.345.448.611.756.798.317.187.653.28 1.008.28.364 0 .705-.089 1.022-.266a2.04 2.04 0 00.756-.784c.187-.345.28-.756.28-1.232z" fill="#202C45"/><path opacity=".6" d="M135 56H29v70h32V99h74V56z" fill="#00E9B9"/><path d="M45 96H28v32h17V96z" fill="#fff"/><path d="M37 56h-5v5h5v-5z" fill="#fff"/><path d="M46 56h-5v5h5v-5z" fill="#fff"/><path d="M55 56h-5v5h5v-5z" fill="#fff"/><path d="M33 56h-5v5h5v-5z" fill="#4A4A4A"/><path d="M42 56h-5v5h5v-5z" fill="#4A4A4A"/><path d="M51 56h-5v5h5v-5z" fill="#4A4A4A"/><path d="M36.5 117.5H61m-39.5-19v-47a2 2 0 012-2h100a2 2 0 012 2v47" stroke="#202C45" stroke-width="3"/><path d="M49.756 77.624c.88 0 1.652.172 2.316.516a3.63 3.63 0 011.548 1.476c.368.632.552 1.368.552 2.208 0 .84-.184 1.576-.552 2.208a3.673 3.673 0 01-1.548 1.452c-.664.344-1.436.516-2.316.516h-2.928v-8.376h2.928zm-.06 6.948c.88 0 1.56-.24 2.04-.72s.72-1.156.72-2.028c0-.872-.24-1.552-.72-2.04-.48-.496-1.16-.744-2.04-.744h-1.188v5.532h1.188zm11.914-2.04c0 .24-.016.456-.048.648h-4.86c.04.48.208.856.504 1.128.296.272.66.408 1.092.408.624 0 1.068-.268 1.332-.804h1.812a3.059 3.059 0 01-1.104 1.584c-.544.408-1.212.612-2.004.612-.64 0-1.216-.14-1.728-.42a3.091 3.091 0 01-1.188-1.212c-.28-.52-.42-1.12-.42-1.8 0-.688.14-1.292.42-1.812.28-.52.672-.92 1.176-1.2.504-.28 1.084-.42 1.74-.42.632 0 1.196.136 1.692.408.504.272.892.66 1.164 1.164.28.496.42 1.068.42 1.716zm-1.74-.48c-.008-.432-.164-.776-.468-1.032-.304-.264-.676-.396-1.116-.396-.416 0-.768.128-1.056.384-.28.248-.452.596-.516 1.044h3.156zm5.738 2.4l1.68-5.1h1.788L66.616 86h-2.04l-2.448-6.648h1.8l1.68 5.1zm10.591-1.92c0 .24-.016.456-.048.648h-4.86c.04.48.208.856.504 1.128.296.272.66.408 1.092.408.624 0 1.068-.268 1.332-.804h1.812a3.059 3.059 0 01-1.104 1.584c-.544.408-1.212.612-2.004.612-.64 0-1.216-.14-1.728-.42a3.091 3.091 0 01-1.188-1.212c-.28-.52-.42-1.12-.42-1.8 0-.688.14-1.292.42-1.812.28-.52.672-.92 1.176-1.2.504-.28 1.084-.42 1.74-.42.632 0 1.196.136 1.692.408.504.272.892.66 1.164 1.164.28.496.42 1.068.42 1.716zm-1.74-.48c-.008-.432-.164-.776-.468-1.032-.304-.264-.676-.396-1.116-.396-.416 0-.768.128-1.056.384-.28.248-.452.596-.516 1.044h3.156zm4.647-4.932V86h-1.68v-8.88h1.68zm4.612 8.988c-.64 0-1.217-.14-1.728-.42a3.15 3.15 0 01-1.212-1.212c-.288-.52-.433-1.12-.433-1.8 0-.68.148-1.28.445-1.8.303-.52.715-.92 1.235-1.2a3.53 3.53 0 011.74-.432c.64 0 1.22.144 1.74.432.52.28.928.68 1.225 1.2.303.52.456 1.12.456 1.8 0 .68-.157 1.28-.469 1.8-.303.52-.72.924-1.248 1.212-.52.28-1.103.42-1.751.42zm0-1.464c.303 0 .587-.072.852-.216.272-.152.488-.376.648-.672.16-.296.24-.656.24-1.08 0-.632-.168-1.116-.504-1.452a1.609 1.609 0 00-1.212-.516c-.48 0-.885.172-1.213.516-.32.336-.48.82-.48 1.452s.156 1.12.468 1.464c.32.336.72.504 1.2.504zm6.38-4.332a2.51 2.51 0 01.888-.756c.384-.208.82-.312 1.308-.312a2.876 2.876 0 012.628 1.62c.272.512.408 1.108.408 1.788 0 .68-.136 1.284-.408 1.812-.264.52-.628.924-1.092 1.212a2.816 2.816 0 01-1.536.432c-.488 0-.92-.1-1.296-.3a2.786 2.786 0 01-.9-.756v4.116h-1.68v-9.816h1.68v.96zm3.516 2.34c0-.4-.084-.744-.252-1.032a1.701 1.701 0 00-1.512-.9c-.304 0-.592.08-.864.24-.264.152-.48.376-.648.672-.16.296-.24.644-.24 1.044s.08.748.24 1.044c.168.296.384.524.648.684.272.152.56.228.864.228.312 0 .6-.08.864-.24.272-.16.488-.388.648-.684.168-.296.252-.648.252-1.056zm9.117-.12c0 .24-.016.456-.048.648h-4.86c.04.48.208.856.504 1.128.296.272.66.408 1.092.408.624 0 1.068-.268 1.332-.804h1.812a3.059 3.059 0 01-1.104 1.584c-.544.408-1.212.612-2.004.612-.64 0-1.216-.14-1.728-.42a3.091 3.091 0 01-1.188-1.212c-.28-.52-.42-1.12-.42-1.8 0-.688.14-1.292.42-1.812.28-.52.672-.92 1.176-1.2.504-.28 1.084-.42 1.74-.42.632 0 1.196.136 1.692.408.504.272.892.66 1.164 1.164.28.496.42 1.068.42 1.716zm-1.74-.48c-.008-.432-.164-.776-.468-1.032-.304-.264-.676-.396-1.116-.396-.416 0-.768.128-1.056.384-.28.248-.452.596-.516 1.044h3.156zm4.646-1.668c.216-.352.496-.628.84-.828.352-.2.752-.3 1.2-.3v1.764h-.444c-.528 0-.928.124-1.2.372-.264.248-.396.68-.396 1.296V86h-1.68v-6.648h1.68v1.032z" fill="#202C45"/><path d="M45 105H8v65h37v-65z" fill="#FFE54C"/><path d="M33.5 99.5h-30a2 2 0 00-2 2v58a2 2 0 002 2h30a2 2 0 002-2v-58a2 2 0 00-2-2z" stroke="#202C45" stroke-width="3"/><path d="M16.657 135.599l-1.378-1.651a4.822 4.822 0 01-1.17.143c-.85 0-1.63-.199-2.34-.598a4.481 4.481 0 01-1.69-1.651c-.416-.711-.624-1.512-.624-2.405 0-.884.208-1.677.624-2.379a4.45 4.45 0 011.69-1.664 4.698 4.698 0 012.34-.598c.858 0 1.638.199 2.34.598.71.399 1.27.953 1.677 1.664.416.702.624 1.495.624 2.379a4.72 4.72 0 01-.52 2.21 4.395 4.395 0 01-1.391 1.612l2.08 2.34h-2.262zm-5.33-6.162c0 .607.117 1.14.351 1.599.234.459.559.815.975 1.066.425.243.91.364 1.456.364.546 0 1.027-.121 1.443-.364.416-.251.741-.607.975-1.066.234-.459.351-.992.351-1.599s-.117-1.135-.351-1.586a2.5 2.5 0 00-.975-1.053c-.416-.243-.897-.364-1.443-.364s-1.031.121-1.456.364a2.5 2.5 0 00-.975 1.053c-.234.451-.351.979-.351 1.586zm14.366 2.834H22.08L21.481 134h-1.91l3.262-9.087h2.12L28.214 134h-1.924l-.598-1.729zm-.494-1.456l-1.313-3.796-1.313 3.796H25.2z" fill="#202C45"/><path d="M7.5 155.5h21" stroke="#202C45" stroke-width="3" stroke-linecap="square"/><path d="M157 158h-6v12h6v-12z" fill="#DCBAFF"/><path d="M68 158h-6v12h6v-12z" fill="#DCBAFF"/><path d="M151 105H68v65h83v-65z" fill="#DCBAFF"/><path d="M139.5 98.5h-77a2 2 0 00-2 2v50a2 2 0 002 2h77a2 2 0 002-2v-50a2 2 0 00-2-2z" stroke="#202C45" stroke-width="3"/><path d="M74 105h-5v5h5v-5z" fill="#fff"/><path d="M83 105h-5v5h5v-5z" fill="#fff"/><path d="M92 105h-5v5h5v-5z" fill="#fff"/><path d="M70 105h-5v5h5v-5z" fill="#4A4A4A"/><path d="M79 105h-5v5h5v-5z" fill="#4A4A4A"/><path d="M88 105h-5v5h5v-5z" fill="#4A4A4A"/><path d="M147.5 152.5h-92a2 2 0 00-2 2v5a2 2 0 002 2h92a2 2 0 002-2v-5a2 2 0 00-2-2z" stroke="#202C45" stroke-width="3"/><path d="M85.96 124.624V133h-1.68v-5.448L82.036 133h-1.272l-2.256-5.448V133h-1.68v-8.376h1.908l2.664 6.228 2.664-6.228h1.896zm1.229 5.028c0-.672.132-1.268.396-1.788.272-.52.636-.92 1.092-1.2.464-.28.98-.42 1.548-.42.496 0 .928.1 1.296.3.376.2.676.452.9.756v-.948h1.692V133h-1.692v-.972a2.539 2.539 0 01-.9.78c-.376.2-.812.3-1.308.3-.56 0-1.072-.144-1.536-.432a3.091 3.091 0 01-1.092-1.212c-.264-.528-.396-1.132-.396-1.812zm5.232.024c0-.408-.08-.756-.24-1.044a1.642 1.642 0 00-.648-.672 1.699 1.699 0 00-.876-.24c-.312 0-.6.076-.864.228-.264.152-.48.376-.648.672-.16.288-.24.632-.24 1.032s.08.752.24 1.056c.168.296.384.524.648.684.272.16.56.24.864.24.312 0 .604-.076.876-.228.272-.16.488-.384.648-.672.16-.296.24-.648.24-1.056zm7.017-3.42c.792 0 1.432.252 1.92.756.488.496.732 1.192.732 2.088v3.9h-1.68v-3.672c0-.528-.132-.932-.396-1.212-.264-.288-.624-.432-1.08-.432-.464 0-.832.144-1.104.432-.264.28-.396.684-.396 1.212V133h-1.68v-6.648h1.68v.828c.224-.288.508-.512.852-.672a2.64 2.64 0 011.152-.252zm3.817 3.396c0-.672.132-1.268.396-1.788.272-.52.636-.92 1.092-1.2.464-.28.98-.42 1.548-.42.496 0 .928.1 1.296.3.376.2.676.452.9.756v-.948h1.692V133h-1.692v-.972a2.539 2.539 0 01-.9.78c-.376.2-.812.3-1.308.3-.56 0-1.072-.144-1.536-.432a3.091 3.091 0 01-1.092-1.212c-.264-.528-.396-1.132-.396-1.812zm5.232.024c0-.408-.08-.756-.24-1.044a1.642 1.642 0 00-.648-.672 1.699 1.699 0 00-.876-.24c-.312 0-.6.076-.864.228-.264.152-.48.376-.648.672-.16.288-.24.632-.24 1.032s.08.752.24 1.056c.168.296.384.524.648.684.272.16.56.24.864.24.312 0 .604-.076.876-.228.272-.16.488-.384.648-.672.16-.296.24-.648.24-1.056zm5.937-3.432c.496 0 .932.1 1.308.3.376.192.672.444.888.756v-.948h1.692v6.696c0 .616-.124 1.164-.372 1.644-.248.488-.62.872-1.116 1.152-.496.288-1.096.432-1.8.432-.944 0-1.72-.22-2.328-.66-.6-.44-.94-1.04-1.02-1.8h1.668c.088.304.276.544.564.72.296.184.652.276 1.068.276.488 0 .884-.148 1.188-.444.304-.288.456-.728.456-1.32v-1.032a2.539 2.539 0 01-.9.78 2.633 2.633 0 01-1.296.312c-.56 0-1.072-.144-1.536-.432a3.06 3.06 0 01-1.104-1.212c-.264-.528-.396-1.132-.396-1.812 0-.672.132-1.268.396-1.788.272-.52.636-.92 1.092-1.2.464-.28.98-.42 1.548-.42zm2.196 3.432c0-.408-.08-.756-.24-1.044a1.642 1.642 0 00-.648-.672 1.699 1.699 0 00-.876-.24c-.312 0-.6.076-.864.228-.264.152-.48.376-.648.672-.16.288-.24.632-.24 1.032s.08.752.24 1.056c.168.296.384.524.648.684.272.16.56.24.864.24.312 0 .604-.076.876-.228.272-.16.488-.384.648-.672.16-.296.24-.648.24-1.056zm9.513-.144c0 .24-.016.456-.048.648h-4.86c.04.48.208.856.504 1.128.296.272.66.408 1.092.408.624 0 1.068-.268 1.332-.804h1.812a3.059 3.059 0 01-1.104 1.584c-.544.408-1.212.612-2.004.612-.64 0-1.216-.14-1.728-.42a3.091 3.091 0 01-1.188-1.212c-.28-.52-.42-1.12-.42-1.8 0-.688.14-1.292.42-1.812.28-.52.672-.92 1.176-1.2.504-.28 1.084-.42 1.74-.42.632 0 1.196.136 1.692.408.504.272.892.66 1.164 1.164.28.496.42 1.068.42 1.716zm-1.74-.48c-.008-.432-.164-.776-.468-1.032-.304-.264-.676-.396-1.116-.396-.416 0-.768.128-1.056.384-.28.248-.452.596-.516 1.044h3.156zm4.646-1.668c.216-.352.496-.628.84-.828.352-.2.752-.3 1.2-.3v1.764h-.444c-.528 0-.928.124-1.2.372-.264.248-.396.68-.396 1.296V133h-1.68v-6.648h1.68v1.032z" fill="#202C45"/><path d="M41.926 198.446h3.22V200h-5.18v-9.772h1.96v8.218zm7.91 1.68c-.747 0-1.419-.163-2.016-.49a3.673 3.673 0 01-1.414-1.414c-.336-.607-.504-1.307-.504-2.1 0-.793.172-1.493.518-2.1a3.647 3.647 0 011.442-1.4 4.118 4.118 0 012.03-.504c.746 0 1.423.168 2.03.504a3.554 3.554 0 011.428 1.4c.354.607.532 1.307.532 2.1 0 .793-.182 1.493-.546 2.1a3.718 3.718 0 01-1.456 1.414c-.607.327-1.288.49-2.044.49zm0-1.708c.354 0 .686-.084.994-.252.317-.177.57-.439.756-.784.186-.345.28-.765.28-1.26 0-.737-.196-1.302-.588-1.694a1.878 1.878 0 00-1.414-.602c-.56 0-1.032.201-1.414.602-.374.392-.56.957-.56 1.694s.182 1.307.546 1.708c.373.392.84.588 1.4.588zm4.98-2.296c0-.803.163-1.503.49-2.1a3.444 3.444 0 011.358-1.4c.578-.336 1.24-.504 1.987-.504.962 0 1.755.243 2.38.728.635.476 1.06 1.148 1.275 2.016h-2.114a1.496 1.496 0 00-.575-.784c-.26-.196-.587-.294-.98-.294-.56 0-1.003.205-1.33.616-.326.401-.49.975-.49 1.722 0 .737.164 1.311.49 1.722.327.401.77.602 1.33.602.794 0 1.312-.355 1.554-1.064h2.114c-.214.84-.639 1.507-1.273 2.002-.635.495-1.428.742-2.38.742-.747 0-1.41-.163-1.989-.49a3.565 3.565 0 01-1.357-1.4c-.327-.607-.49-1.311-.49-2.114zm8.421-.028c0-.784.154-1.479.462-2.086.318-.607.742-1.073 1.274-1.4a3.425 3.425 0 011.806-.49c.58 0 1.083.117 1.512.35.44.233.79.527 1.05.882v-1.106h1.974V200h-1.974v-1.134c-.252.364-.602.667-1.05.91-.438.233-.947.35-1.526.35-.653 0-1.25-.168-1.792-.504-.532-.336-.956-.807-1.274-1.414-.308-.616-.462-1.321-.462-2.114zm6.104.028c0-.476-.093-.882-.28-1.218a1.916 1.916 0 00-.756-.784 1.979 1.979 0 00-1.022-.28c-.364 0-.7.089-1.008.266a2.04 2.04 0 00-.756.784c-.186.336-.28.737-.28 1.204 0 .467.094.877.28 1.232.196.345.448.611.756.798.318.187.654.28 1.008.28.364 0 .705-.089 1.022-.266a2.04 2.04 0 00.756-.784c.187-.345.28-.756.28-1.232zm5.849-6.482V200h-1.96v-10.36h1.96zm9.64 2.492c.588 0 1.11.131 1.568.392.457.252.812.63 1.064 1.134.261.495.392 1.092.392 1.792V200h-1.96v-4.284c0-.616-.154-1.087-.462-1.414-.308-.336-.728-.504-1.26-.504-.541 0-.97.168-1.288.504-.308.327-.462.798-.462 1.414V200h-1.96v-10.36h1.96v3.57a2.502 2.502 0 011.008-.784 3.27 3.27 0 011.4-.294zm8.332 7.994c-.747 0-1.419-.163-2.016-.49a3.673 3.673 0 01-1.414-1.414c-.336-.607-.504-1.307-.504-2.1 0-.793.173-1.493.518-2.1a3.647 3.647 0 011.442-1.4 4.118 4.118 0 012.03-.504c.747 0 1.423.168 2.03.504a3.554 3.554 0 011.428 1.4c.355.607.532 1.307.532 2.1 0 .793-.182 1.493-.546 2.1a3.718 3.718 0 01-1.456 1.414c-.607.327-1.288.49-2.044.49zm0-1.708c.355 0 .686-.084.994-.252.317-.177.57-.439.756-.784.187-.345.28-.765.28-1.26 0-.737-.196-1.302-.588-1.694a1.878 1.878 0 00-1.414-.602c-.56 0-1.031.201-1.414.602-.373.392-.56.957-.56 1.694s.182 1.307.546 1.708c.373.392.84.588 1.4.588zm8.452 1.708c-.635 0-1.204-.112-1.708-.336a3.13 3.13 0 01-1.204-.938 2.387 2.387 0 01-.476-1.302h1.974c.037.299.182.546.434.742.261.196.583.294.966.294.373 0 .662-.075.868-.224.214-.149.322-.341.322-.574 0-.252-.131-.439-.392-.56-.252-.131-.658-.271-1.218-.42a10.767 10.767 0 01-1.428-.434 2.535 2.535 0 01-.952-.686c-.262-.308-.392-.723-.392-1.246 0-.429.121-.821.364-1.176.252-.355.606-.635 1.064-.84.466-.205 1.012-.308 1.638-.308.924 0 1.661.233 2.212.7.55.457.854 1.078.91 1.862h-1.876a.985.985 0 00-.392-.728c-.224-.187-.528-.28-.91-.28-.355 0-.63.065-.826.196a.63.63 0 00-.28.546c0 .261.13.462.392.602.261.131.667.266 1.218.406.56.14 1.022.285 1.386.434.364.149.676.383.938.7.27.308.41.719.42 1.232 0 .448-.126.849-.378 1.204-.243.355-.598.635-1.064.84-.458.196-.994.294-1.61.294zm6.943-6.272v3.752c0 .261.06.453.182.574.13.112.345.168.644.168h.91V200h-1.232c-1.652 0-2.478-.803-2.478-2.408v-3.738h-.924v-1.61h.924v-1.918h1.974v1.918h1.736v1.61h-1.736z" fill="#202C45"/><path d="M128.5 47c37.5-15.5 69.909-15.306 104.377-10.613 21.836 2.972 54.623 18.113 64.019 39.681 1.604 6.432 2.427 15.55-2.335 20.338-6.916 6.955-17.33 4.428-20.613 0-5.278-7.118-.121-19.322 5.738-25.039 14.875-14.514 48.886-4.564 60.411 17.922 22.221 43.351-2.11 85.606-30.07 100.19-3.691 1.925-15.466-1.859-15.466-8.337 0-6.479 7.52-9.121 14.19-6.713 4.446 1.605 10.233 6.241 21.749 19.571" stroke="#202C45" stroke-linecap="round" stroke-dasharray="1 4"/><path d="M264 32h-63v35h63V32z" fill="#fff"/><path d="M147.004 243.203c19.897-18.3 41.062-29.535 63.496-33.703 18.128-3.368 35.296-.689 46.557 5.758 20.616 11.802 17.601 26.471 16.05 33.828-1.606 7.618-12.848 15.55-20.441 14.273-9.894-1.664-15.312-11.759-14.533-20.156 1.448-15.617 32.424-41.047 62.226-39.742 8.199.359 14.471 1.372 23.141 5.039" stroke="#202C45" stroke-linecap="round" stroke-dasharray="1 4"/><path fill-rule="evenodd" clip-rule="evenodd" d="M178 204h61v22l-65.162-1.899L178 204z" fill="#fff"/><path fill-rule="evenodd" clip-rule="evenodd" d="M202.565 34.443l-2.831-2.212a.5.5 0 01.616-.788l3.546 2.77a.5.5 0 01-.206.884h-.002l-4.228 1.54a.5.5 0 11-.342-.94l3.447-1.254z" fill="#4A4A4A"/><path fill-rule="evenodd" clip-rule="evenodd" d="M327.861 211.02l-1.904-3.046a.5.5 0 01.848-.53l2.385 3.817a.5.5 0 01-.496.759h-4.502a.5.5 0 110-1h3.669z" fill="#4A4A4A"/><path fill-rule="evenodd" clip-rule="evenodd" d="M334.297 198.408l-.746-3.513a.5.5 0 11.978-.208l.935 4.402a.5.5 0 01-.726.544h-.001l-4.229-1.54a.5.5 0 11.342-.939l3.447 1.254z" fill="#4A4A4A"/><path fill-rule="evenodd" clip-rule="evenodd" d="M348.738 198.569l.313-3.578a.5.5 0 01.996.087l-.392 4.483a.5.5 0 01-.853.309l-.002-.001-3.593-2.709a.5.5 0 11.601-.798l2.93 2.207z" fill="#4A4A4A"/><path fill-rule="evenodd" clip-rule="evenodd" d="M177.348 220.721l-3.59.126a.501.501 0 01-.035-1l4.498-.157a.5.5 0 01.41.81l-.001.001-2.25 3.897a.5.5 0 01-.866-.5l1.834-3.177z" fill="#4A4A4A"/><path d="M346.01 192c-10.553-24.956-24.993-45.317-43.32-61.084-14.25-12.259-40.27-22.885-56.201-20.137-29.166 5.032-30.528 24.037-31.847 33.31-1.366 9.604 8.416 23.682 17.85 25.422 12.293 2.268 22.938-7.243 25.604-17.406 4.96-18.901-20.979-64.21-55.918-73.045-21.357-5.401-42.063-3.133-62.119 6.805" stroke="#202C45" stroke-linecap="round" stroke-dasharray="1 4"/><path d="M268 134h-24v29h24v-29z" fill="#fff"/><path d="M219.431 203.498l-19.127 5.848a.998.998 0 00-.663 1.248l4.093 13.389a1 1 0 001.248.664l19.126-5.848a.999.999 0 00.664-1.249l-4.093-13.388a1 1 0 00-1.248-.664z" fill="#DCBAFF"/><path fill-rule="evenodd" clip-rule="evenodd" d="M200.7 209.422l8.533 2.054a.732.732 0 01.54.882l-.005.018a.77.77 0 01-.923.549l-8.533-2.054a.73.73 0 01-.539-.882l.004-.018a.77.77 0 01.923-.549z" fill="#4A4A4A"/><path fill-rule="evenodd" clip-rule="evenodd" d="M214.284 205.166l-5.517 6.587a.764.764 0 00.085 1.067.736.736 0 001.039-.072l.008-.01 5.517-6.588a.764.764 0 00-.084-1.067.737.737 0 00-1.039.073l-.009.01z" fill="#4A4A4A"/><path d="M215.187 202.443l-17.692 5.409a1 1 0 00-.664 1.249l3.655 11.953a.999.999 0 001.248.664l17.692-5.409a1 1 0 00.664-1.248l-3.655-11.954a1 1 0 00-1.248-.664z" stroke="#4A4A4A" stroke-width="1.5"/><path clip-rule="evenodd" d="M184.299 215.582c3.072.597 6.008.245 8.808-1.057-2.188-2.397-4.715-4.246-7.58-5.548-4.298-1.953-8.141-1.798-8.563.37-.421 2.169 2.727 5.339 7.335 6.235z" stroke="#4A4A4A"/><path clip-rule="evenodd" d="M191.831 225.208c1.691-2.015 2.518-4.41 2.481-7.185-2.89.434-5.443 1.401-7.657 2.902-3.321 2.251-4.665 5.23-2.972 6.65 1.692 1.42 5.612.655 8.148-2.367z" stroke="#4A4A4A"/><path clip-rule="evenodd" d="M231.405 201.18c-2.213 2.213-4.844 3.563-7.893 4.05.474-3.211 1.534-6.157 3.182-8.839 2.471-4.023 5.744-6.043 7.306-4.481 1.562 1.562.725 5.951-2.595 9.27z" stroke="#4A4A4A"/><path clip-rule="evenodd" d="M230.544 213.372c-2.529-.725-4.553-2.248-6.074-4.569 2.638-1.257 5.295-1.882 7.97-1.876 4.012.009 6.792 1.728 6.183 3.851-.609 2.124-4.286 3.682-8.079 2.594z" stroke="#4A4A4A"/><path d="M247.418 38.224l-19.696-3.473a1 1 0 00-1.159.811l-2.431 13.787a1 1 0 00.811 1.159l19.697 3.473a1 1 0 001.158-.812l2.431-13.787a1 1 0 00-.811-1.158z" fill="#FFE54C"/><path fill-rule="evenodd" clip-rule="evenodd" d="M228.04 34.999l6.67 5.703a.731.731 0 01.081 1.03l-.013.015a.77.77 0 01-1.072.07l-6.67-5.704a.73.73 0 01-.08-1.03l.012-.014a.77.77 0 011.072-.07z" fill="#4A4A4A"/><path fill-rule="evenodd" clip-rule="evenodd" d="M242.075 37.374l-7.906 3.364a.764.764 0 00-.409.99.737.737 0 00.971.4l7.906-3.364a.764.764 0 00.409-.989.736.736 0 00-.958-.407l-.013.006z" fill="#4A4A4A"/><path d="M244.116 35.357l-18.219-3.213a1 1 0 00-1.159.811l-2.17 12.31a1 1 0 00.811 1.159l18.219 3.212a1 1 0 001.158-.81l2.171-12.31a1 1 0 00-.811-1.16z" stroke="#4A4A4A" stroke-width="1.5"/><path clip-rule="evenodd" d="M210.63 33.04c2.466 1.928 5.242 2.947 8.328 3.059-.862-3.13-2.274-5.925-4.236-8.386-2.942-3.691-6.437-5.298-7.797-3.557-1.36 1.741.006 5.995 3.705 8.885z" stroke="#4A4A4A"/><path clip-rule="evenodd" d="M212.971 45.037c2.421-1.028 4.245-2.786 5.472-5.275-2.772-.926-5.486-1.223-8.14-.89-3.981.497-6.531 2.542-5.668 4.575.864 2.034 4.704 3.132 8.336 1.59z" stroke="#4A4A4A"/><path clip-rule="evenodd" d="M259.14 41.595c-2.977.967-5.934.975-8.872.025 1.88-2.646 4.163-4.79 6.848-6.431 4.028-2.463 7.861-2.777 8.544-.676.683 2.1-2.055 5.63-6.52 7.082z" stroke="#4A4A4A"/><path clip-rule="evenodd" d="M252.837 52.067c-1.923-1.794-3.036-4.07-3.337-6.829 2.921.078 5.572.727 7.953 1.947 3.571 1.83 5.267 4.623 3.761 6.239-1.507 1.615-5.491 1.334-8.377-1.357z" stroke="#4A4A4A"/><path d="M275.467 146.902l-19.488-4.499a.999.999 0 00-1.199.749l-3.149 13.641a1 1 0 00.749 1.199l19.488 4.5a1 1 0 001.199-.75l3.149-13.641a.999.999 0 00-.749-1.199z" fill="#2EF8CF"/><path fill-rule="evenodd" clip-rule="evenodd" d="M256.284 142.667l6.363 6.045a.731.731 0 01.013 1.047.769.769 0 01-1.074.013l-6.362-6.045a.73.73 0 01-.027-1.033l.013-.014a.769.769 0 011.074-.013z" fill="#4A4A4A"/><path fill-rule="evenodd" clip-rule="evenodd" d="M270.176 145.773l-8.071 2.946a.764.764 0 00-.461.966.737.737 0 00.936.457l.013-.005 8.071-2.946a.763.763 0 00.461-.966.737.737 0 00-.936-.456l-.013.004z" fill="#4A4A4A"/><path d="M272.319 143.866l-18.026-4.162a1 1 0 00-1.199.749l-2.812 12.18a1 1 0 00.749 1.199l18.026 4.162a1.001 1.001 0 001.2-.749l2.811-12.18a.999.999 0 00-.749-1.199z" stroke="#4A4A4A" stroke-width="1.5"/><path clip-rule="evenodd" d="M239 139.8c2.362 2.054 5.081 3.217 8.157 3.49-.697-3.17-1.96-6.035-3.791-8.596-2.745-3.84-6.151-5.627-7.6-3.96-1.45 1.667-.308 5.987 3.234 9.066z" stroke="#4A4A4A"/><path clip-rule="evenodd" d="M240.71 151.903c2.472-.9 4.385-2.56 5.741-4.982-2.72-1.069-5.414-1.508-8.082-1.315-4.002.289-6.655 2.197-5.899 4.273.755 2.076 4.532 3.373 8.24 2.024z" stroke="#4A4A4A"/><path clip-rule="evenodd" d="M286.996 150.881c-3.023.81-5.976.664-8.86-.439 2.015-2.544 4.407-4.565 7.175-6.064 4.151-2.248 7.995-2.361 8.567-.228.572 2.134-2.347 5.516-6.882 6.731z" stroke="#4A4A4A"/><path clip-rule="evenodd" d="M280.154 161.009c-1.827-1.892-2.819-4.223-2.975-6.994 2.913.231 5.526 1.018 7.84 2.361 3.47 2.014 5.018 4.892 3.429 6.427-1.589 1.534-5.553 1.044-8.294-1.794z" stroke="#4A4A4A"/><path fill-rule="evenodd" clip-rule="evenodd" d="M485.795 71.825c8.982-1.994 18.249-10.734 22.649-14.994 4.951 4.535 11.534 10.46 18.119 11.394 6.584.933 18.429-.938 20.085-2.146 0 11.063 15.962 41.734 18.345 38.841 1.332-1.618 7.334-11.455 21.525-9.502 2.335-12.235.039-31.68-7.756-42.53-8.648-12.038-17.537-7.548-20.1-4.29-1.384-9.9-6.015-18.407-15.834-23.453-26.105-13.414-63.432 1.282-73.894-14.43-14.854-22.307-32.419 2.094-33.533 16.884-1.586 21.062 7.941 39.426 19.028 44.226 3.729 1.614 19.98 2.528 31.366 0z" fill="#000" stroke="#000" stroke-width="3"/><path d="M558.5 77.5l-1.202 5.016" stroke="#fff" stroke-width="2" stroke-linecap="round"/><path d="M564.5 83.5l-1.202 5.016" stroke="#fff" stroke-width="2" stroke-linecap="round"/><path d="M572.5 81.5l-1.202 5.016" stroke="#fff" stroke-width="2" stroke-linecap="round"/><path d="M579.5 87.5l-1.202 5.016" stroke="#fff" stroke-width="2" stroke-linecap="round"/><path d="M566.5 72.5l-.601 3.137" stroke="#fff" stroke-width="2" stroke-linecap="round"/><path d="M574.5 69.5l-.601 3.137" stroke="#fff" stroke-width="2" stroke-linecap="round"/><path d="M580.5 76.5l-.601 3.137" stroke="#fff" stroke-width="2" stroke-linecap="round"/><path fill-rule="evenodd" clip-rule="evenodd" d="M572.922 51.983c7.413-8.886 6.731-19.614 5.194-23.837-2.142 4.149-3.147 9.308-10.958 12.15-7.811 2.843-16.892 1.367-15.355 5.59 1.537 4.222 13.706 14.983 21.119 6.097z" fill="#000"/><path fill-rule="evenodd" clip-rule="evenodd" d="M563.35 46.005c6.184-6.307 6.163-13.712 5.169-16.599-1.861 2.916-2.888 6.506-9.094 8.643-6.206 2.137-12.264 2.555-16.664 3.303-4.4.749 14.406 10.96 20.589 4.653z" fill="#000"/><path fill-rule="evenodd" clip-rule="evenodd" d="M504.265 183.348c5.498-1.338 14.014-3.06 25.547-5.168-4.455 7.259-14.672 18.146-30.653 32.661l5.106-27.493z" fill="#4A4A4A"/><path d="M503.528 184.557c-.707 6.933-1.403 12.068-2.089 15.405-.686 3.336-1.816 7.319-3.39 11.947" stroke="#000" stroke-width="3" stroke-linecap="round" stroke-linejoin="bevel"/><path d="M510.315 141.906c2.245-1.013 4.347-2.516 6.307-4.509 2.288-2.328 3.753-4.798 4.396-7.412" stroke="#000" stroke-width="4" stroke-linecap="round"/><path d="M487.246 102.318c1.579 11.632 3.441 19.414 5.585 23.346.982 1.802 3.241 2.217 6.777 1.245" stroke="#000" stroke-width="3" stroke-linecap="round"/><path d="M449.14 68.863c4.465 5.457 7.594 10.81 9.387 16.06 2.689 7.876 9.533 50.344 11.474 64.17 1.941 13.826 7.181 26.667 21.791 31.589 9.74 3.281 22.032 2.212 36.875-3.207" stroke="#000" stroke-width="3" stroke-linecap="round"/><path d="M580.021 139.169c2.925 15.306 5.477 26.608 7.655 33.907 2.179 7.298 5.471 15.949 9.878 25.952" stroke="#000" stroke-width="3" stroke-linecap="round" stroke-linejoin="bevel"/><path fill-rule="evenodd" clip-rule="evenodd" d="M510.318 76.18c5.164 0 6.241-2.574 4.5-4.453-1.741-1.88-2.911-2.715-6.318-3.145-3.407-.43-5.553 1.905-5.89 3.145-.337 1.24 2.544 4.453 7.708 4.453z" fill="#000"/><path fill-rule="evenodd" clip-rule="evenodd" d="M469.605 88.875c3.025 0 6.432-1.959 5.781-3.678-.651-1.719-2.603-2.276-5.781-3.258-3.177-.981-4.242 2.018-4.579 3.258-.336 1.24 1.554 3.678 4.579 3.678z" fill="#000"/><path fill-rule="evenodd" clip-rule="evenodd" d="M517.5 105c1.933 0 3.202-1.567 3.202-3.5s-1.418-4.074-3.706-3.757c-2.288.317-2.996 1.824-2.996 3.757a3.5 3.5 0 003.5 3.5z" fill="#000"/><path fill-rule="evenodd" clip-rule="evenodd" d="M474.5 113c1.933 0 2.698-1.567 2.698-3.5s-.765-3.5-2.698-3.5c-.899 0-1.82.3-2.44.857-.713.641-1.06 1.609-1.06 2.643a3.5 3.5 0 003.5 3.5z" fill="#000"/><path clip-rule="evenodd" d="M513 119c10.493 0 19-8.507 19-19s-8.507-19-19-19-19.402 8.507-19.402 19 8.909 19 19.402 19z" stroke="#FFEE19" stroke-width="4"/><path d="M532.5 94.5l39.658 4.048" stroke="#FFEE19" stroke-width="4" stroke-linecap="round"/><path clip-rule="evenodd" d="M463.505 132c10.767 0 19.495-8.728 19.495-19.495 0-10.766-8.728-19.495-19.495-19.495-10.766 0-19.907 8.729-19.907 19.495 0 10.767 9.141 19.495 19.907 19.495z" stroke="#FFEE19" stroke-width="4"/><path opacity=".7" d="M494.8 107.5c-1.679-.473-3.505-.614-5.476-.425-2.301.221-4.221.895-5.76 2.021" stroke="#FFEE19" stroke-width="4" stroke-linecap="round"/><path d="M578.177 133.958c13.466.329 22.416-9.076 24.001-19.114 1.585-10.038-7.277-19.106-18.875-19.106-7.096 0-13.975 4.261-18.019 9.685" stroke="#000" stroke-width="3" stroke-linecap="round"/><path fill-rule="evenodd" clip-rule="evenodd" d="M583.018 107.934c1.298-.257 2.054-.179 2.332-.349.784-.481 0-1 0-1s-1.975-.829-4.445 0c-1.969.66-7.306 5.179-8.117 7.753-.206.654.287 1.205.779 1.455 2.317 1.177 6.637-7.3 9.451-7.859z" fill="#000"/><path fill-rule="evenodd" clip-rule="evenodd" d="M511.622 526.845c21.379 2.625 77.684-18.419 79.131-30.204 1.447-11.786-.834-36.503-22.213-39.128-10.544-1.295-21.653-42.526-32.94-36.8-3.237-2.73-9.367 39.212-12.856 37.542-7.194-3.444-13.907-4.573-15.937-3.121-3.277 2.342 5.941 20.049 12.944 28.002-1.863 2.237-12.944-16.264-12.944-18.266 0-1.735-7.636-5.787-17.115 0-9.638-18.947-8.052-23.442-13.022-24.498-4.511-.958-10.791 14.109-4.739 33.274-7.328-23.09-11.353-29.168-14.962-29.19-3.069-.019-5.885 15.042-5.235 30.046-4.22-16.989-8.526-31.276-11.547-30.046-3.773 1.535-13.139 19.539-5.93 38.68-5.701-15.699-12.198-20.913-14.933-18.266-7.422 7.183 0 14.24 3.244 30.752.502 2.558 5.246 20.968 17.619 24.412 25.561 7.116 61.173 5.551 71.435 6.811z" fill="#fff"/><path d="M585.585 503.347c-23.567 14.377-46.181 22.115-67.843 23.215-30.768 1.563-70.693-4.508-78.146-6.951-14.418-4.725-16.858-31.629-20.555-40.721-2.324-5.715-4.036-11.264 0-13.939 4.036-2.675 7.832 2.108 10.667 7.995 3.515 7.3 6.477 15.029 8.888 23.185" stroke="#000" stroke-width="3" stroke-linecap="round" stroke-linejoin="bevel"/><path d="M498.223 483.865c4.689-.536 8.244-.771 10.666-.706 2.421.066 5.895.493 10.421 1.28" stroke="#4A4A4A" stroke-width="3" stroke-linecap="round"/><path d="M451.858 476.282c-.627-3.229-.94-6.189-.94-8.88 0-12.264 2.482-21.069 1.604-25.345-1.844-8.979 10.722-8.847 14.205 2.005 2.057 6.41.856 18.356 5.306 31.036 1.631 4.649 4.247 10.876 7.847 18.682" stroke="#000" stroke-width="3" stroke-linecap="round" stroke-linejoin="bevel"/><path d="M473.859 479.939c-1.089-2.297-1.634-5.915-1.634-10.854 0-11.713 1.173-19.764.297-24.028-1.844-8.979 10.722-8.847 14.205 2.005 2.057 6.41 1.348 15.8 5.798 28.479 1.632 4.65 4.527 10.229 8.686 16.74" stroke="#000" stroke-width="3" stroke-linecap="round" stroke-linejoin="bevel"/><path d="M434.219 484.254c-1.33-3.174-1.994-7.23-1.994-12.169 0-11.713 1.173-19.764.297-24.028-1.845-8.979 10.722-8.847 14.205 2.005 2.057 6.41 1.347 15.8 5.798 28.479 1.631 4.649 4.198 10.425 7.701 17.328" stroke="#000" stroke-width="3" stroke-linecap="round" stroke-linejoin="bevel"/><path d="M586.272 472.027l53.706-1.421c10.234 2.072 14.346 4.77 12.335 8.093-5.829 9.632-21.051 16.882-39.859 20.781-12.538 2.6-19.662 3.126-21.37 1.578l-4.812-29.031z" fill="#000"/><path d="M320.657 473.87c27.289 16.363 83.348-6.046 60.91-15.895-22.437-9.848-39.578-9.938-57.161-14.632-17.584-4.693-23.856.511-27.363 6.292-3.506 5.782-3.674 7.871 23.614 24.235z" fill="#000"/><path fill-rule="evenodd" clip-rule="evenodd" d="M438.991 424.705c20.268 2.489 63.376-18.48 95.353-4.195 32.226 14.395 50.587 63.61 52.321 82.171 23.932-9.552 101.463-49.253 104.941-77.578 5.492-44.727 10.614-195.682-37.469-222.384-32.688-18.153-73.711 6.883-102.91 12.025-29.2 5.142-100.805-11.627-128.684 6.252-22.544 14.458-52.646 59.125-54.777 76.478-7.101 57.832-8.533 117.438 71.225 127.231z" fill="url(#paint0_linear)"/><path d="M543.204 471.198c-12.334-7.795-21.659-13.256-27.976-16.384-9.477-4.69-11.249 4.919-8.916 10.194 4.518 10.21 12.455 19.477 23.718 29.2.677.585 1.417 1.665 2.22 3.242" stroke="#000" stroke-width="3" stroke-linecap="round"/><path d="M577.343 366.514c1.058.543 1.772 1.411 2.144 2.604 2.742 8.801 1.026 14.911 4.455 18.577 3.429 3.667 8.618 3.225 10.377.987 1.76-2.239 2.526-5.99-3.283-7.766-5.808-1.776-27.095 13.819-37.108 21.731-6.675 5.274-14.779 12.334-24.312 21.179" stroke="#000" stroke-width="3" stroke-linecap="round"/><path fill-rule="evenodd" clip-rule="evenodd" d="M561.366 340.979c-2.346-3.139-1.939-12.349 12.682-7.985 13.976-11.394 27.121-30.187 30.286-44.317-12.861 2.198-35.849 2.861-55.537 10.04-19.688 7.179-39.131 20.724-43.253 41.928 16.849 5.275 38.049 7.893 55.822.334z" fill="#66F2D5"/><path clip-rule="evenodd" d="M560.006 334.103c-2.4-3.098-2.154-12.313 12.541-8.205 13.775-11.636 26.59-30.655 29.508-44.839-12.821 2.422-35.794 3.487-55.354 11.008-19.559 7.521-38.763 21.404-42.514 42.677 16.938 4.98 38.181 7.227 55.819-.641z" stroke="#000" stroke-width="3"/><path d="M491.645 350.898c9.982-14.792 24.504-28.165 43.564-40.118 19.06-11.953 40.914-20.929 65.56-26.927" stroke="#000" stroke-width="3" stroke-linecap="round"/><path fill-rule="evenodd" clip-rule="evenodd" d="M412.21 358.022c-11.514-7.434-20.592-22.13-23.133-32.613 9.608 1.47 28.117-1.037 42.873 4.054 14.756 5.091 28.035 17.629 31.38 33.367-12.48 4.148-35.517 5.267-51.12-4.808z" fill="#66F2D5"/><path clip-rule="evenodd" d="M413.138 351.062c-10.968-8.219-18.998-23.512-20.802-34.147 9.482 2.137 28.12.927 42.486 7.035 14.365 6.108 26.737 19.541 28.976 35.475-12.739 3.267-35.798 2.776-50.66-8.363z" stroke="#000" stroke-width="3"/><path d="M472.714 371.777c-7.046-11.271-17.509-21.604-31.387-30.998-13.879-9.394-29.914-16.644-48.107-21.75" stroke="#000" stroke-width="3" stroke-linecap="round"/><path d="M446.276 269.171c5.109 4.844 8.957 9.183 11.544 13.017 7.137 10.577 10.149 18.551 10.149 23.987 0 15.375-14.279 13.45-16.243 10.698-7.704-10.793 22.221-14.794 29.248 8.132 3.497 11.411 3.497 26.166 0 44.264" stroke="#2EF8CF" stroke-width="8" stroke-linecap="round"/><path fill-rule="evenodd" clip-rule="evenodd" d="M437.501 271.398l10.006-10.276c.658-.637 4.644 3.607 11.957 12.73 7.313 9.124 11.287 19.84 11.924 32.148-4.518-.336-7.234-1.865-8.15-4.586-3.339-9.925-11.094-15.64-15.731-18.2-6.154-3.399-13.223-3.399-21.207 0l11.201-11.816z" fill="#66F2D5"/><path d="M448.283 262.296c9.104 9.427 14.95 16.058 17.537 19.892 7.137 10.577 10.149 18.551 10.149 23.987 0 15.375-14.279 13.45-16.243 10.698-7.704-10.793 22.221-14.794 29.248 8.132 3.497 11.411 3.497 27.06 0 46.947" stroke="#000" stroke-width="3" stroke-linecap="round"/><path fill-rule="evenodd" clip-rule="evenodd" d="M442.732 224.166l9.903-1.392 2.366 16.835c-3.857 10.609-6.679 17.488-8.469 20.638-1.79 3.15-5.189 7.213-10.199 12.188l6.399-48.269z" fill="#fff"/><path fill-rule="evenodd" clip-rule="evenodd" d="M332.626 235.745c11.826 1.015 20.384 1.151 25.676.407 5.291-.744 11.916-3.013 19.877-6.809l1.948 13.863-45.552 6.402-1.949-13.863z" fill="#fff"/><path fill-rule="evenodd" clip-rule="evenodd" d="M339.299 289.333c34.035 21.267 78.867 10.917 100.134-23.118 21.268-34.035 10.917-78.866-23.118-100.134-17.956-11.22-42.217-14.98-62.611-6.024 0 0-1.557 22.259 9.217 42.72 5.932 11.264 13.209 21.021 21.831 29.269-11.073 5.712-21.931 9.005-32.575 9.881-12.176 1.001-26.168.023-45.792-3.203 4.234 21.245 15.993 40.035 32.914 50.609z" fill="#66F2D5"/><path clip-rule="evenodd" d="M345.703 283.766c34.035 21.268 78.867 10.917 100.134-23.118 21.268-34.035 10.917-78.866-23.118-100.134-17.956-11.22-42.217-14.98-62.611-6.024 0 0-1.557 22.259 9.217 42.72 5.932 11.265 13.209 21.021 21.831 29.27-11.073 5.711-21.931 9.004-32.575 9.88-12.176 1.001-26.168.023-45.792-3.202 4.234 21.245 15.993 40.035 32.914 50.608z" stroke="#000" stroke-width="3"/><path d="M398.998 184.393c-1.86 2.118-2.223 4.302-1.088 6.553 1.702 3.377 7.429 5.721 14.774 2.661" stroke="#000" stroke-width="3" stroke-linecap="round"/><path d="M387.87 162.954c-1.383 1.574-1.653 3.197-.809 4.87 1.265 2.51 5.521 4.252 10.981 1.977" stroke="#000" stroke-width="3" stroke-linecap="round"/><path d="M449.268 215.709c4.014 3.078 8.288 3.789 12.821 2.133 5.27-1.926 10.073-5.325 14.407-10.196" stroke="#000" stroke-width="3" stroke-linecap="round"/><path fill-rule="evenodd" clip-rule="evenodd" d="M466.446 237.091c13.936-4.843 22.265-14.108 23.358-19.732-5.065 3.127-9.551 8.105-19.955 6.083-10.403-2.023-19.357-9.6-20.45-3.976-.412 2.121-1.11 6.135-.371 9.911.602 3.079 2.286 5.986 4.819 7.697 2.599 1.755 8.202 1.545 12.599.017z" fill="#fff"/><path d="M454.817 238.045c7.712.704 14.319-.511 19.822-3.644 6.398-3.643 11.192-8.111 14.385-13.403" stroke="#000" stroke-width="3" stroke-linecap="round"/><path fill-rule="evenodd" clip-rule="evenodd" d="M460.903 233.308c14.605-2.095 23.112-12.843 25.258-18.155-5.569 2.104-10.922 6.134-20.749 2.164-9.826-3.97-17.17-13.117-19.316-7.804-2.146 5.312.202 25.89 14.807 23.795z" fill="#66F2D5"/><path fill-rule="evenodd" clip-rule="evenodd" d="M454.5 214.298c11.226-.897 17.401-8.04 18.859-11.649-4.231 1.249-8.221 3.844-15.98.709s-13.939-7.8-18.799-10.76c-4.86-2.96 4.694 22.597 15.92 21.7z" fill="#66F2D5"/><g style="mix-blend-mode:multiply"><path fill-rule="evenodd" clip-rule="evenodd" d="M447.5 387h76l-4 69c-6.03-2.594-11.8-1.645-13.514 2.354-1.714 3.999 1.978 12.215 11.074 24.646-6.892-.454-13.643 0-20.06 0-8.406-13.883-6.689-37.706-15.137-41.376-4.816-2.091-8.47-2.72-9.77 2.074-.536 1.977.107 4.881 0 8.99-.051 1.939-.321 7.101-.81 15.487-1.349-.303-2.023-1.825-2.023-4.567 0-2.061.879-19.008-6.407-24.031-3.853-4.077-7.353-4.577-11.669 0L447.5 387z" fill="#FFE54C"/><path d="M486 452.592c9.394-2.439 29.909-15.731 35-20.121 6.364-5.487 8.182-19.206-4.091-12.804-12.273 6.402-22.203 30.041-20 37.956 3.182 11.432 30.909-2.897 44.091-5.031" stroke="#fff" stroke-width="3"/><path d="M528 377h-83v11h83v-11z" fill="#FFE54C"/><path d="M526.5 372.5h-90v14.308h90V372.5z" stroke="#000" stroke-width="3"/><path d="M440.5 388.5l4 56.5" stroke="#000" stroke-width="3" stroke-linecap="round" stroke-linejoin="bevel"/></g><path clip-rule="evenodd" d="M289.83 462.873c10.475-1.847 73.255-1.133 76.573-25.711.291-2.159-10.37-18.796-21.054-33.939-9.699-13.746-19.494-26.164-19.688-27.268-.442-2.505-3.452-20 3.434-25.263 9.352-7.148 23.253-11.675 28.535-21.397 4.085-7.519 2.907-15.442-1.661-17.76-2.558-1.298-8.862 4.924-14.602 8.507-4.509 2.814-7.692 4.605-14.272 6.066-19.986 4.437-21.602 3.308-34.181 8.936-16.542 7.403-35.938 27.901-32.353 48.236 3.586 20.336 17.038 81.75 29.269 79.593z" stroke="#000" stroke-width="3"/><path fill-rule="evenodd" clip-rule="evenodd" d="M308.047 403.27c6.548 1.205 18.167-5.061 13.609-14.572 12.54.143 15.645-9.114 10.008-15.236 10.037 1.644 17.26-6.061 11.644-14.44 5.096 4.345 15.115 13.223 17.59 15.808 8.75 9.138 20.854 4.732 19.103-3.368-.499-2.309-16.864-17.954-23.774-24.982-20.119-20.46-35.139-22.876-58.67-15.039-23.531 7.836-40.303 31.307-37.244 48.656 2.387 13.537 15.678 6.075 32.518 7.659 1.862 2.877 3.606 13.376 15.216 15.514z" fill="#fff" stroke="#000" stroke-width="3"/><path d="M324.506 346.338c3.905 1.026 7.41 2.584 10.514 4.674 3.023 2.034 6.309 5.338 9.859 9.909" stroke="#000" stroke-width="3" stroke-linecap="round"/><path d="M312.473 360.883c4.501 1.378 8.49 3.344 11.966 5.899 3.192 2.345 5.888 4.967 8.087 7.865" stroke="#000" stroke-width="3" stroke-linecap="round"/><path d="M304.659 377.217c3.704 1.104 6.913 2.561 9.625 4.371 2.712 1.81 5.145 4.166 7.299 7.067" stroke="#000" stroke-width="3" stroke-linecap="round"/><path fill-rule="evenodd" clip-rule="evenodd" d="M467 405l16.5 12 16.5-12-2 19h-29l-2-19z" fill="#fff"/><path fill-rule="evenodd" clip-rule="evenodd" d="M467 402h32l-16 12-16-12z" fill="#fff"/><path fill-rule="evenodd" clip-rule="evenodd" d="M333.331 481.072c29.908 0 68.717-36.903 49.666-53.833-19.051-16.929-32.072 12.584-61.98 12.584-29.909 0-58.224-7.487-54.723 13.95 3.502 21.437 37.128 27.299 67.037 27.299z" fill="url(#paint1_linear)"/><path fill-rule="evenodd" clip-rule="evenodd" d="M275.952 403.307c3.041 0 18.991 3.073 21.636 1.732 3.838-1.946 3.62-5.324 6.276-8.487 1.982-2.36 4.822-8.698 1.538-12.372-4.816-5.386-20.469-10.18-24.902-10.18-3.86 0-10.385-8.589-13.984-7.48-3.352 1.032-5.837 8.278-3.999 19.147 2.601 15.368 5.979 17.64 13.435 17.64z" fill="#fff"/><path d="M391.753 227.336a18.756 18.756 0 004.238 2.324c1.728.673 3.247 1.005 4.556.994" stroke="#000" stroke-width="3" stroke-linecap="round"/></g><defs><linearGradient id="paint0_linear" x1="389.551" y1="403.871" x2="571.472" y2="236.209" gradientUnits="userSpaceOnUse"><stop stop-color="#fff"/><stop offset="1" stop-color="#EEEEEF"/></linearGradient><linearGradient id="paint1_linear" x1="311.695" y1="481.072" x2="320.021" y2="418.627" gradientUnits="userSpaceOnUse"><stop stop-color="#fff"/><stop offset="1" stop-color="#EEEEEF"/></linearGradient><clipPath id="clip0"><path fill="#fff" d="M0 0h696v529H0z"/></clipPath></defs></svg>